<mxfile host="app.diagrams.net" agent="Mozilla/5.0 (Windows NT 10.0; Win64; x64) AppleWebKit/537.36 (KHTML, like Gecko) Chrome/129.0.0.0 Safari/537.36" version="24.8.0">
  <diagram name="Page-1" id="wpQLlc00m3X2eT2RVmko">
    <mxGraphModel dx="1901" dy="564" grid="0" gridSize="10" guides="0" tooltips="1" connect="1" arrows="1" fold="1" page="0" pageScale="1" pageWidth="827" pageHeight="1169" math="0" shadow="0">
      <root>
        <mxCell id="0" />
        <mxCell id="1" parent="0" />
        <mxCell id="Yy_-SBkH3VJCivCbjX5J-53" value="&lt;span style=&quot;&quot;&gt;&lt;b&gt;&lt;font style=&quot;font-size: 14px;&quot;&gt;OpenCue Distributed rendering system&lt;/font&gt;&lt;/b&gt;&lt;/span&gt;" style="verticalLabelPosition=bottom;verticalAlign=top;html=1;shape=mxgraph.basic.rect;fillColor2=none;strokeWidth=2;size=20;indent=5;fillColor=none;shadow=1;labelPosition=center;align=center;labelBackgroundColor=none;labelBorderColor=default;horizontal=1;" vertex="1" parent="1">
          <mxGeometry x="10" y="60" width="760" height="510" as="geometry" />
        </mxCell>
        <mxCell id="Yy_-SBkH3VJCivCbjX5J-1" value="&lt;font size=&quot;1&quot; color=&quot;#000000&quot;&gt;&lt;b style=&quot;font-size: 14px;&quot;&gt;Artist Workstation&amp;nbsp;&lt;/b&gt;&lt;/font&gt;" style="fontColor=#0066CC;verticalAlign=top;verticalLabelPosition=bottom;labelPosition=center;align=center;html=1;outlineConnect=0;fillColor=#CCCCCC;strokeColor=#6881B3;gradientColor=none;gradientDirection=north;strokeWidth=2;shape=mxgraph.networks.pc;" vertex="1" parent="1">
          <mxGeometry x="30" y="90" width="140" height="110" as="geometry" />
        </mxCell>
        <mxCell id="Yy_-SBkH3VJCivCbjX5J-8" value="&lt;b&gt;Render Manager Server&amp;nbsp;&lt;br&gt;(Linux)&lt;/b&gt;" style="sketch=0;aspect=fixed;pointerEvents=1;shadow=0;dashed=0;html=1;strokeColor=#23445d;labelPosition=center;verticalLabelPosition=bottom;verticalAlign=top;align=center;fillColor=#bac8d3;shape=mxgraph.azure.server;" vertex="1" parent="1">
          <mxGeometry x="280" y="80" width="133.34" height="40" as="geometry" />
        </mxCell>
        <mxCell id="Yy_-SBkH3VJCivCbjX5J-9" style="edgeStyle=orthogonalEdgeStyle;rounded=1;orthogonalLoop=1;jettySize=auto;html=1;entryX=0;entryY=0.5;entryDx=0;entryDy=0;entryPerimeter=0;dashed=1;strokeWidth=2;curved=0;strokeColor=#64696d;jumpStyle=none;dashPattern=1 2;jumpSize=6;startSize=8;endSize=7;flowAnimation=1;shadow=1;" edge="1" parent="1" source="Yy_-SBkH3VJCivCbjX5J-1" target="Yy_-SBkH3VJCivCbjX5J-8">
          <mxGeometry relative="1" as="geometry" />
        </mxCell>
        <mxCell id="Yy_-SBkH3VJCivCbjX5J-11" value="" style="sketch=0;aspect=fixed;pointerEvents=1;shadow=0;dashed=0;html=1;strokeColor=none;labelPosition=center;verticalLabelPosition=bottom;verticalAlign=top;align=center;fillColor=#00188D;shape=mxgraph.azure.server" vertex="1" parent="1">
          <mxGeometry x="470" y="150" width="133.33" height="40" as="geometry" />
        </mxCell>
        <mxCell id="Yy_-SBkH3VJCivCbjX5J-12" value="" style="sketch=0;aspect=fixed;pointerEvents=1;shadow=0;dashed=0;html=1;strokeColor=none;labelPosition=center;verticalLabelPosition=bottom;verticalAlign=top;align=center;fillColor=#00188D;shape=mxgraph.azure.server" vertex="1" parent="1">
          <mxGeometry x="470" y="210" width="133.33" height="40" as="geometry" />
        </mxCell>
        <mxCell id="Yy_-SBkH3VJCivCbjX5J-13" value="" style="sketch=0;aspect=fixed;pointerEvents=1;shadow=0;dashed=0;html=1;strokeColor=none;labelPosition=center;verticalLabelPosition=bottom;verticalAlign=top;align=center;fillColor=#00188D;shape=mxgraph.azure.server" vertex="1" parent="1">
          <mxGeometry x="470" y="330" width="133.33" height="40" as="geometry" />
        </mxCell>
        <mxCell id="Yy_-SBkH3VJCivCbjX5J-36" style="edgeStyle=orthogonalEdgeStyle;rounded=1;orthogonalLoop=1;jettySize=auto;html=1;entryX=0;entryY=0.5;entryDx=0;entryDy=0;entryPerimeter=0;flowAnimation=1;curved=0;strokeWidth=2;dashed=1;dashPattern=1 2;strokeColor=#64696d;endSize=7;startSize=8;" edge="1" parent="1" source="Yy_-SBkH3VJCivCbjX5J-8" target="Yy_-SBkH3VJCivCbjX5J-11">
          <mxGeometry relative="1" as="geometry" />
        </mxCell>
        <mxCell id="Yy_-SBkH3VJCivCbjX5J-37" style="edgeStyle=orthogonalEdgeStyle;rounded=1;orthogonalLoop=1;jettySize=auto;html=1;entryX=0;entryY=0.5;entryDx=0;entryDy=0;entryPerimeter=0;flowAnimation=1;curved=0;strokeWidth=2;dashed=1;dashPattern=1 2;strokeColor=#64696d;endSize=7;startSize=8;" edge="1" parent="1" source="Yy_-SBkH3VJCivCbjX5J-8" target="Yy_-SBkH3VJCivCbjX5J-12">
          <mxGeometry relative="1" as="geometry" />
        </mxCell>
        <mxCell id="Yy_-SBkH3VJCivCbjX5J-38" style="edgeStyle=orthogonalEdgeStyle;rounded=1;orthogonalLoop=1;jettySize=auto;html=1;entryX=0;entryY=0.5;entryDx=0;entryDy=0;entryPerimeter=0;flowAnimation=1;curved=0;strokeWidth=2;dashed=1;dashPattern=1 2;strokeColor=#64696d;endSize=7;startSize=8;" edge="1" parent="1" source="Yy_-SBkH3VJCivCbjX5J-8" target="Yy_-SBkH3VJCivCbjX5J-13">
          <mxGeometry relative="1" as="geometry" />
        </mxCell>
        <mxCell id="Yy_-SBkH3VJCivCbjX5J-51" value="&lt;font style=&quot;font-size: 12px;&quot;&gt;&lt;b&gt;rendered shots are saved to a shared storage server&amp;nbsp; &amp;nbsp;&lt;/b&gt;&lt;/font&gt;" style="edgeStyle=orthogonalEdgeStyle;rounded=0;orthogonalLoop=1;jettySize=auto;html=1;exitX=0;exitY=0.5;exitDx=0;exitDy=0;exitPerimeter=0;strokeWidth=2;strokeColor=#64696d;flowAnimation=1;dashed=1;dashPattern=1 2;" edge="1" parent="1" source="Yy_-SBkH3VJCivCbjX5J-43" target="Yy_-SBkH3VJCivCbjX5J-50">
          <mxGeometry x="0.234" relative="1" as="geometry">
            <mxPoint x="770" y="530" as="targetPoint" />
            <mxPoint as="offset" />
          </mxGeometry>
        </mxCell>
        <mxCell id="Yy_-SBkH3VJCivCbjX5J-43" value="&lt;blockquote style=&quot;margin: 0px 0px 0px 40px; border: none; padding: 0px; font-size: 13px;&quot;&gt;&lt;b&gt;&amp;nbsp; &amp;nbsp; &amp;nbsp;Worker Farms&lt;br&gt;&amp;nbsp; &amp;nbsp; &amp;nbsp; &amp;nbsp; (Windows)&lt;/b&gt;&lt;/blockquote&gt;" style="strokeWidth=2;html=1;shape=mxgraph.flowchart.annotation_1;align=left;pointerEvents=1;direction=west;" vertex="1" parent="1">
          <mxGeometry x="610" y="140" width="50" height="240" as="geometry" />
        </mxCell>
        <mxCell id="Yy_-SBkH3VJCivCbjX5J-45" value="" style="line;strokeWidth=4;direction=south;html=1;dashed=1;perimeterSpacing=0;dashPattern=1 1;" vertex="1" parent="1">
          <mxGeometry x="530" y="251" width="10" height="80" as="geometry" />
        </mxCell>
        <mxCell id="Yy_-SBkH3VJCivCbjX5J-50" value="&lt;font size=&quot;1&quot; color=&quot;#000000&quot;&gt;&lt;b style=&quot;font-size: 14px;&quot;&gt;Storage Server&lt;/b&gt;&lt;/font&gt;" style="fontColor=#0066CC;verticalAlign=top;verticalLabelPosition=bottom;labelPosition=center;align=center;html=1;outlineConnect=0;fillColor=#CCCCCC;strokeColor=#6881B3;gradientColor=none;gradientDirection=north;strokeWidth=2;shape=mxgraph.networks.server;" vertex="1" parent="1">
          <mxGeometry x="60" y="380" width="130" height="150" as="geometry" />
        </mxCell>
        <mxCell id="Yy_-SBkH3VJCivCbjX5J-52" value="&lt;b&gt;Render Manager Server&amp;nbsp;&lt;br&gt;distributes frames to render machines&lt;/b&gt;" style="text;html=1;align=center;verticalAlign=middle;resizable=0;points=[];autosize=1;strokeColor=none;fillColor=none;" vertex="1" parent="1">
          <mxGeometry x="270" y="180" width="240" height="40" as="geometry" />
        </mxCell>
        <mxCell id="Yy_-SBkH3VJCivCbjX5J-55" value="&lt;b&gt;&lt;font color=&quot;#666600&quot;&gt;- Cuebot&lt;/font&gt;&lt;/b&gt;&lt;div&gt;&lt;b&gt;&lt;font color=&quot;#666600&quot;&gt;- Postgres SQL&lt;/font&gt;&lt;/b&gt;&lt;/div&gt;" style="text;html=1;align=left;verticalAlign=middle;resizable=0;points=[];autosize=1;strokeColor=none;fillColor=none;" vertex="1" parent="1">
          <mxGeometry x="287" y="74" width="110" height="40" as="geometry" />
        </mxCell>
        <mxCell id="Yy_-SBkH3VJCivCbjX5J-56" value="&lt;b style=&quot;&quot;&gt;&lt;font color=&quot;#fff4c3&quot;&gt;RQD (worker)&lt;/font&gt;&lt;/b&gt;" style="text;html=1;align=left;verticalAlign=middle;resizable=0;points=[];autosize=1;strokeColor=none;fillColor=none;" vertex="1" parent="1">
          <mxGeometry x="485" y="155" width="100" height="30" as="geometry" />
        </mxCell>
        <mxCell id="Yy_-SBkH3VJCivCbjX5J-57" value="&lt;b style=&quot;&quot;&gt;&lt;font color=&quot;#fff4c3&quot;&gt;RQD (worker)&lt;/font&gt;&lt;/b&gt;" style="text;html=1;align=left;verticalAlign=middle;resizable=0;points=[];autosize=1;strokeColor=none;fillColor=none;" vertex="1" parent="1">
          <mxGeometry x="485" y="215" width="100" height="30" as="geometry" />
        </mxCell>
        <mxCell id="Yy_-SBkH3VJCivCbjX5J-58" value="&lt;b style=&quot;&quot;&gt;&lt;font color=&quot;#fff4c3&quot;&gt;RQD (worker)&lt;/font&gt;&lt;/b&gt;" style="text;html=1;align=left;verticalAlign=middle;resizable=0;points=[];autosize=1;strokeColor=none;fillColor=none;" vertex="1" parent="1">
          <mxGeometry x="485" y="335" width="100" height="30" as="geometry" />
        </mxCell>
        <mxCell id="Yy_-SBkH3VJCivCbjX5J-59" value="&lt;font color=&quot;#000099&quot;&gt;&lt;b&gt;- CueGui&lt;/b&gt;&lt;/font&gt;&lt;div&gt;&lt;font color=&quot;#000099&quot;&gt;&lt;b&gt;- CueSubmit&lt;/b&gt;&lt;/font&gt;&lt;/div&gt;&lt;div&gt;&lt;font color=&quot;#000099&quot;&gt;&lt;b&gt;- CueAdmin&amp;nbsp;&lt;/b&gt;&lt;/font&gt;&lt;/div&gt;" style="text;html=1;align=left;verticalAlign=middle;resizable=0;points=[];autosize=1;strokeColor=none;fillColor=none;" vertex="1" parent="1">
          <mxGeometry x="70" y="99" width="90" height="60" as="geometry" />
        </mxCell>
        <mxCell id="Yy_-SBkH3VJCivCbjX5J-60" value="&lt;font size=&quot;1&quot; color=&quot;#000000&quot;&gt;&lt;b style=&quot;font-size: 14px;&quot;&gt;Artist Workstation&amp;nbsp;&lt;/b&gt;&lt;/font&gt;" style="fontColor=#0066CC;verticalAlign=top;verticalLabelPosition=bottom;labelPosition=center;align=center;html=1;outlineConnect=0;fillColor=#CCCCCC;strokeColor=#6881B3;gradientColor=none;gradientDirection=north;strokeWidth=2;shape=mxgraph.networks.pc;" vertex="1" parent="1">
          <mxGeometry x="-304" y="360" width="140" height="110" as="geometry" />
        </mxCell>
        <mxCell id="Yy_-SBkH3VJCivCbjX5J-63" value="" style="sketch=0;aspect=fixed;pointerEvents=1;shadow=0;dashed=0;html=1;strokeColor=none;labelPosition=center;verticalLabelPosition=bottom;verticalAlign=top;align=center;fillColor=#00188D;shape=mxgraph.azure.server" vertex="1" parent="1">
          <mxGeometry x="-304" y="90" width="133.33" height="40" as="geometry" />
        </mxCell>
        <mxCell id="Yy_-SBkH3VJCivCbjX5J-64" value="" style="sketch=0;aspect=fixed;pointerEvents=1;shadow=0;dashed=0;html=1;strokeColor=none;labelPosition=center;verticalLabelPosition=bottom;verticalAlign=top;align=center;fillColor=#00188D;shape=mxgraph.azure.server" vertex="1" parent="1">
          <mxGeometry x="-304" y="150" width="133.33" height="40" as="geometry" />
        </mxCell>
        <mxCell id="Yy_-SBkH3VJCivCbjX5J-65" value="" style="sketch=0;aspect=fixed;pointerEvents=1;shadow=0;dashed=0;html=1;strokeColor=none;labelPosition=center;verticalLabelPosition=bottom;verticalAlign=top;align=center;fillColor=#00188D;shape=mxgraph.azure.server" vertex="1" parent="1">
          <mxGeometry x="-304" y="270" width="133.33" height="40" as="geometry" />
        </mxCell>
        <mxCell id="Yy_-SBkH3VJCivCbjX5J-70" value="&lt;blockquote style=&quot;margin: 0px 0px 0px 40px; border: none; padding: 0px; font-size: 13px;&quot;&gt;&lt;b&gt;&amp;nbsp; &amp;nbsp; &amp;nbsp;Worker Farms&lt;br&gt;&amp;nbsp; &amp;nbsp; &amp;nbsp; &amp;nbsp; (Windows)&lt;/b&gt;&lt;/blockquote&gt;" style="strokeWidth=2;html=1;shape=mxgraph.flowchart.annotation_1;align=left;pointerEvents=1;direction=west;" vertex="1" parent="1">
          <mxGeometry x="-164" y="80" width="50" height="240" as="geometry" />
        </mxCell>
        <mxCell id="Yy_-SBkH3VJCivCbjX5J-71" value="" style="line;strokeWidth=4;direction=south;html=1;dashed=1;perimeterSpacing=0;dashPattern=1 1;" vertex="1" parent="1">
          <mxGeometry x="-244" y="191" width="10" height="80" as="geometry" />
        </mxCell>
        <mxCell id="Yy_-SBkH3VJCivCbjX5J-81" style="edgeStyle=orthogonalEdgeStyle;rounded=0;orthogonalLoop=1;jettySize=auto;html=1;endSize=7;startSize=8;flowAnimation=1;dashed=1;dashPattern=1 2;strokeWidth=2;strokeColor=#64696d;" edge="1" parent="1" source="Yy_-SBkH3VJCivCbjX5J-80" target="Yy_-SBkH3VJCivCbjX5J-63">
          <mxGeometry relative="1" as="geometry" />
        </mxCell>
        <mxCell id="Yy_-SBkH3VJCivCbjX5J-80" value="&lt;b&gt;&lt;font style=&quot;font-size: 13px;&quot;&gt;Common Shared storage&lt;/font&gt;&lt;/b&gt;" style="sketch=0;pointerEvents=1;shadow=0;dashed=0;html=1;strokeColor=none;fillColor=#505050;labelPosition=center;verticalLabelPosition=bottom;verticalAlign=top;outlineConnect=0;align=center;shape=mxgraph.office.servers.file_server;" vertex="1" parent="1">
          <mxGeometry x="-624" y="102" width="169.29" height="136" as="geometry" />
        </mxCell>
        <mxCell id="Yy_-SBkH3VJCivCbjX5J-75" value="&lt;b style=&quot;&quot;&gt;&lt;font color=&quot;#fff4c3&quot;&gt;- RQD (worker)&lt;/font&gt;&lt;/b&gt;&lt;div&gt;&lt;b&gt;&lt;font color=&quot;#fff4c3&quot;&gt;- CueGui&lt;/font&gt;&lt;/b&gt;&lt;div&gt;&lt;b&gt;&lt;font color=&quot;#fff4c3&quot;&gt;- CueSubmit&lt;/font&gt;&lt;/b&gt;&lt;/div&gt;&lt;div&gt;&lt;b style=&quot;&quot;&gt;&lt;font color=&quot;#fff4c3&quot;&gt;- CueAdmin&amp;nbsp;&lt;/font&gt;&lt;/b&gt;&lt;/div&gt;&lt;/div&gt;" style="text;html=1;align=left;verticalAlign=middle;resizable=0;points=[];autosize=1;strokeColor=none;fillColor=none;" vertex="1" parent="1">
          <mxGeometry x="-622" y="117" width="110" height="70" as="geometry" />
        </mxCell>
        <mxCell id="Yy_-SBkH3VJCivCbjX5J-82" style="edgeStyle=orthogonalEdgeStyle;rounded=1;orthogonalLoop=1;jettySize=auto;html=1;entryX=0;entryY=0.5;entryDx=0;entryDy=0;entryPerimeter=0;dashed=1;dashPattern=1 2;strokeWidth=2;curved=0;flowAnimation=1;endSize=7;startSize=8;strokeColor=#64696d;" edge="1" parent="1" source="Yy_-SBkH3VJCivCbjX5J-80" target="Yy_-SBkH3VJCivCbjX5J-64">
          <mxGeometry relative="1" as="geometry" />
        </mxCell>
        <mxCell id="Yy_-SBkH3VJCivCbjX5J-83" style="edgeStyle=orthogonalEdgeStyle;rounded=1;orthogonalLoop=1;jettySize=auto;html=1;entryX=0;entryY=0.5;entryDx=0;entryDy=0;entryPerimeter=0;strokeWidth=2;curved=0;strokeColor=#64696d;flowAnimation=1;dashed=1;dashPattern=1 2;endSize=7;startSize=8;" edge="1" parent="1" source="Yy_-SBkH3VJCivCbjX5J-80" target="Yy_-SBkH3VJCivCbjX5J-65">
          <mxGeometry relative="1" as="geometry" />
        </mxCell>
        <mxCell id="Yy_-SBkH3VJCivCbjX5J-85" style="edgeStyle=orthogonalEdgeStyle;rounded=1;orthogonalLoop=1;jettySize=auto;html=1;entryX=0;entryY=0.5;entryDx=0;entryDy=0;entryPerimeter=0;strokeWidth=2;curved=0;strokeColor=#64696d;endSize=7;startSize=8;flowAnimation=1;dashed=1;dashPattern=1 2;" edge="1" parent="1" source="Yy_-SBkH3VJCivCbjX5J-80" target="Yy_-SBkH3VJCivCbjX5J-60">
          <mxGeometry relative="1" as="geometry" />
        </mxCell>
        <mxCell id="Yy_-SBkH3VJCivCbjX5J-86" value="&lt;b&gt;10 Gb/s network infrastructure&amp;nbsp;&lt;/b&gt;" style="rounded=1;whiteSpace=wrap;html=1;dashed=1;dashPattern=12 12;" vertex="1" parent="1">
          <mxGeometry x="-434" y="210" width="120" height="60" as="geometry" />
        </mxCell>
        <mxCell id="Yy_-SBkH3VJCivCbjX5J-87" value="&lt;span style=&quot;font-size: 14px;&quot;&gt;&lt;b&gt;Sync main files over network&lt;/b&gt;&lt;/span&gt;" style="verticalLabelPosition=bottom;verticalAlign=top;html=1;shape=mxgraph.basic.rect;fillColor2=none;strokeWidth=2;size=20;indent=5;fillColor=none;shadow=1;labelPosition=center;align=center;labelBackgroundColor=none;labelBorderColor=default;horizontal=1;" vertex="1" parent="1">
          <mxGeometry x="-649" y="60" width="640" height="450" as="geometry" />
        </mxCell>
        <mxCell id="Yy_-SBkH3VJCivCbjX5J-90" value="&lt;font size=&quot;1&quot; color=&quot;#fff4c3&quot;&gt;&lt;b style=&quot;font-size: 13px;&quot;&gt;Venv&lt;/b&gt;&lt;/font&gt;" style="text;html=1;align=center;verticalAlign=middle;resizable=0;points=[];autosize=1;strokeColor=none;fillColor=none;" vertex="1" parent="1">
          <mxGeometry x="-532" y="199" width="48" height="28" as="geometry" />
        </mxCell>
      </root>
    </mxGraphModel>
  </diagram>
</mxfile>
